<svg width="59" height="60" viewBox="0 0 59 60" fill="none" xmlns="http://www.w3.org/2000/svg">
<g clip-path="url(#clip0_15_114)">
<path d="M1.25887 29.6409C1.25748 34.6821 2.56286 39.6044 5.04501 43.943L1.02148 58.7667L16.0554 54.7891C20.2136 57.0733 24.8726 58.2702 29.607 58.2705H29.6194C45.2487 58.2705 57.9712 45.4372 57.9779 29.6635C57.9809 22.02 55.0337 14.8325 49.679 9.42511C44.3252 4.01813 37.2048 1.03883 29.6183 1.03534C13.9872 1.03534 1.26555 13.8679 1.2591 29.6409" fill="url(#paint0_linear_15_114)"/>
<path d="M0.246602 29.6316C0.244988 34.8542 1.59715 39.9526 4.1678 44.4465L0 59.8016L15.573 55.6814C19.8639 58.0421 24.695 59.2867 29.6109 59.2886H29.6235C45.8135 59.2886 58.9931 45.9937 59 29.6553C59.0028 21.7372 55.9495 14.2914 50.4035 8.69023C44.8568 3.08977 37.4818 0.00325581 29.6235 0C13.4308 0 0.253055 13.293 0.246602 29.6316ZM9.52066 43.6726L8.93919 42.7412C6.49484 38.8193 5.20468 34.2872 5.20652 29.6335C5.21182 16.0533 16.1646 5.00465 29.6328 5.00465C36.155 5.00744 42.2846 7.57302 46.8949 12.2279C51.5049 16.8833 54.0417 23.0716 54.0401 29.6535C54.0341 43.2337 43.0811 54.2837 29.6235 54.2837H29.6139C25.232 54.2814 20.9344 53.0939 17.1865 50.85L16.2946 50.3163L7.05327 52.7612L9.52066 43.6723V43.6726Z" fill="url(#paint1_linear_15_114)"/>
<path d="M22.281 17.2437C21.7311 16.0105 21.1524 15.9856 20.6295 15.9639C20.2013 15.9453 19.7117 15.9467 19.2227 15.9467C18.7332 15.9467 17.9378 16.1326 17.2656 16.8733C16.5926 17.6146 14.6963 19.4063 14.6963 23.0502C14.6963 26.6944 17.3266 30.216 17.6933 30.7107C18.0604 31.2044 22.7712 38.9216 30.232 41.8905C36.4325 44.3577 37.6943 43.867 39.04 43.7432C40.3859 43.62 43.383 41.9521 43.9944 40.2226C44.6063 38.4933 44.6063 37.0109 44.4228 36.7012C44.2394 36.3926 43.7499 36.2072 43.0158 35.837C42.2816 35.4665 38.6729 33.6746 38.0001 33.4274C37.3272 33.1805 36.8379 33.0572 36.3484 33.7988C35.8589 34.5393 34.4532 36.2072 34.0248 36.7012C33.5968 37.1963 33.1684 37.2579 32.4345 36.8874C31.7 36.5158 29.3361 35.7346 26.5316 33.2116C24.3495 31.2484 22.8763 28.8239 22.4481 28.0823C22.0199 27.3419 22.4022 26.9405 22.7703 26.5714C23.1001 26.2395 23.5046 25.7065 23.8719 25.2742C24.2379 24.8416 24.3601 24.533 24.6048 24.0391C24.8498 23.5446 24.7272 23.1121 24.544 22.7416C24.3601 22.3712 22.9337 18.7081 22.281 17.2437Z" fill="white"/>
</g>
<defs>
<linearGradient id="paint0_linear_15_114" x1="29.4997" y1="58.7667" x2="29.4997" y2="1.03534" gradientUnits="userSpaceOnUse">
<stop stop-color="#1FAF38"/>
<stop offset="1" stop-color="#60D669"/>
</linearGradient>
<linearGradient id="paint1_linear_15_114" x1="29.5" y1="59.8016" x2="29.5" y2="0" gradientUnits="userSpaceOnUse">
<stop stop-color="#F9F9F9"/>
<stop offset="1" stop-color="white"/>
</linearGradient>
<clipPath id="clip0_15_114">
<rect width="59" height="60" fill="white"/>
</clipPath>
</defs>
</svg>
